<?xml version="1.0" encoding="UTF-8"?>
<svg xmlns="http://www.w3.org/2000/svg" xmlns:xlink="http://www.w3.org/1999/xlink" width="466px" height="392px" viewBox="0 0 466 392" version="1.1">
<g id="surface1">
<rect x="0" y="0" width="466" height="392" style="fill:rgb(100%,100%,100%);fill-opacity:1;stroke:none;"/>
<path style=" stroke:none;fill-rule:nonzero;fill:rgb(100%,76.862746%,32.156864%);fill-opacity:1;" d="M 404.644531 186.527344 L 75.164062 186.527344 C 70.632812 186.527344 66.957031 190.207031 66.957031 194.746094 L 66.957031 313.488281 C 66.957031 318.023438 70.632812 321.707031 75.164062 321.707031 L 404.644531 321.707031 C 409.179688 321.707031 412.855469 318.023438 412.855469 313.488281 L 412.855469 194.746094 C 412.855469 190.207031 409.179688 186.527344 404.644531 186.527344 Z M 404.644531 186.527344 "/>
<path style=" stroke:none;fill-rule:nonzero;fill:rgb(24.313726%,24.313726%,24.313726%);fill-opacity:1;" d="M 138.15625 295.117188 L 110.375 295.117188 L 120.511719 212.214844 L 130.148438 212.214844 L 121.261719 285.257812 L 130.273438 285.257812 L 132.773438 264.871094 L 142.035156 264.871094 Z M 138.15625 295.117188 "/>
<path style=" stroke:none;fill-rule:nonzero;fill:rgb(24.313726%,24.313726%,24.313726%);fill-opacity:1;" d="M 165.1875 273.917969 L 155.679688 273.917969 L 151.421875 295.117188 L 141.785156 295.117188 L 158.679688 212.214844 L 177.578125 212.214844 L 174.199219 295.117188 L 164.3125 295.117188 Z M 157.554688 264.332031 L 165.6875 264.332031 L 167.441406 222.070312 L 166.0625 222.070312 Z M 157.554688 264.332031 "/>
<path style=" stroke:none;fill-rule:nonzero;fill:rgb(24.313726%,24.313726%,24.313726%);fill-opacity:1;" d="M 209.738281 281.207031 C 208.488281 291.066406 203.234375 296.0625 193.847656 296.0625 L 192.84375 296.0625 C 183.835938 296.0625 179.707031 291.066406 180.957031 281.207031 L 182.207031 270.8125 L 191.84375 270.8125 L 190.46875 282.558594 C 190.21875 284.988281 191.09375 286.070312 193.09375 286.070312 L 196.601562 286.070312 C 198.601562 286.070312 199.726562 284.71875 200.105469 282.152344 L 202.230469 264.871094 L 184.835938 253.257812 L 187.964844 227.46875 C 189.214844 217.34375 194.722656 212.214844 204.359375 212.214844 L 217.121094 212.214844 L 213.242188 244.484375 L 203.609375 244.484375 L 206.359375 222.070312 L 201.605469 222.070312 C 199.351562 222.070312 198.101562 223.417969 197.726562 225.984375 L 195.097656 247.722656 L 212.492188 259.199219 Z M 209.738281 281.207031 "/>
<path style=" stroke:none;fill-rule:nonzero;fill:rgb(24.313726%,24.313726%,24.313726%);fill-opacity:1;" d="M 256.917969 244.484375 L 247.65625 244.484375 L 250.410156 222.070312 L 245.28125 222.070312 L 236.269531 295.117188 L 226.632812 295.117188 L 235.519531 222.070312 L 230.261719 222.070312 L 227.507812 244.484375 L 218.25 244.484375 L 222.253906 212.214844 L 260.796875 212.214844 Z M 256.917969 244.484375 "/>
<path style=" stroke:none;fill-rule:nonzero;fill:rgb(24.313726%,24.313726%,24.313726%);fill-opacity:1;" d="M 266.804688 212.214844 L 276.441406 212.214844 L 266.179688 295.117188 L 256.542969 295.117188 Z M 266.804688 212.214844 "/>
<path style=" stroke:none;fill-rule:nonzero;fill:rgb(24.313726%,24.313726%,24.313726%);fill-opacity:1;" d="M 289.828125 285.257812 L 291.332031 285.257812 L 306.097656 212.214844 L 315.734375 212.214844 L 298.589844 295.117188 L 279.816406 295.117188 L 283.070312 212.214844 L 292.957031 212.214844 Z M 289.828125 285.257812 "/>
<path style=" stroke:none;fill-rule:nonzero;fill:rgb(24.313726%,24.313726%,24.313726%);fill-opacity:1;" d="M 332.878906 267.707031 L 325.121094 267.707031 L 321.742188 295.117188 L 312.105469 295.117188 L 322.242188 212.214844 L 331.878906 212.214844 L 327.75 245.5625 L 338.511719 239.21875 L 341.765625 212.347656 L 351.398438 212.347656 L 347.519531 243.808594 L 326.496094 256.09375 L 326.246094 258.121094 L 343.640625 258.121094 L 340.761719 281.476562 C 340.511719 283.910156 341.640625 285.664062 343.890625 285.664062 L 345.519531 285.664062 L 344.265625 295.925781 C 334.882812 295.925781 329.875 291.46875 331.253906 280.128906 Z M 332.878906 267.707031 "/>
<path style=" stroke:none;fill-rule:nonzero;fill:rgb(24.313726%,24.313726%,24.313726%);fill-opacity:1;" d="M 371.046875 273.917969 L 361.410156 273.917969 L 357.28125 295.117188 L 347.644531 295.117188 L 364.539062 212.214844 L 383.433594 212.214844 L 380.054688 295.117188 L 370.167969 295.117188 Z M 363.410156 264.332031 L 371.546875 264.332031 L 373.296875 222.070312 L 371.921875 222.070312 Z M 363.410156 264.332031 "/>
<path style=" stroke:none;fill-rule:nonzero;fill:rgb(100%,76.862746%,32.156864%);fill-opacity:1;" d="M 400.453125 111.660156 L 234.410156 111.660156 C 227.574219 111.660156 222.03125 117.207031 222.03125 124.054688 L 222.03125 164.441406 C 222.03125 171.285156 227.574219 176.832031 234.410156 176.832031 L 400.453125 176.832031 C 407.289062 176.832031 412.832031 171.285156 412.832031 164.441406 L 412.832031 124.054688 C 412.832031 117.207031 407.289062 111.660156 400.453125 111.660156 Z M 400.453125 111.660156 "/>
<path style=" stroke:none;fill-rule:nonzero;fill:rgb(24.313726%,24.313726%,24.313726%);fill-opacity:1;" d="M 268.25 156.480469 C 265.65625 156.480469 263.824219 156.121094 262.746094 155.398438 C 261.667969 154.65625 261.128906 153.449219 261.128906 151.777344 C 261.128906 150.1875 261.128906 148.851562 261.128906 147.773438 C 261.15625 146.667969 261.167969 145.640625 261.167969 144.691406 C 261.167969 143.226562 261.117188 141.75 261.015625 140.257812 C 260.910156 138.769531 260.707031 137.34375 260.398438 135.984375 C 260.089844 134.621094 259.628906 133.390625 259.011719 132.285156 C 258.398438 131.179688 257.578125 130.28125 256.550781 129.589844 C 258.292969 128.253906 260.296875 127.585938 262.554688 127.585938 C 264.117188 127.585938 265.363281 128.035156 266.285156 128.933594 C 267.210938 129.832031 267.902344 131.039062 268.363281 132.554688 C 268.824219 134.042969 269.121094 135.699219 269.25 137.523438 C 269.402344 139.320312 269.480469 141.132812 269.480469 142.957031 C 269.480469 144.136719 269.453125 145.28125 269.402344 146.386719 C 269.378906 147.488281 269.363281 148.503906 269.363281 149.429688 L 270.363281 149.429688 C 270.953125 148.144531 271.582031 146.695312 272.25 145.074219 C 272.917969 143.457031 273.546875 141.8125 274.136719 140.144531 C 274.726562 138.472656 275.199219 136.894531 275.558594 135.40625 C 275.945312 133.914062 276.136719 132.671875 276.136719 131.667969 C 276.136719 131.230469 276.097656 130.847656 276.019531 130.511719 C 275.945312 130.152344 275.839844 129.84375 275.714844 129.589844 C 276.6875 128.921875 277.597656 128.417969 278.445312 128.085938 C 279.316406 127.75 280.203125 127.585938 281.101562 127.585938 C 282.511719 127.585938 283.5 127.996094 284.0625 128.816406 C 284.652344 129.613281 284.949219 130.652344 284.949219 131.9375 C 284.949219 132.886719 284.769531 134.003906 284.410156 135.289062 C 284.050781 136.574219 283.578125 137.933594 282.984375 139.375 C 282.421875 140.8125 281.820312 142.25 281.175781 143.6875 C 280.535156 145.101562 279.90625 146.4375 279.292969 147.695312 C 278.703125 148.953125 278.214844 150.046875 277.828125 150.96875 L 278.367188 153.089844 C 277.648438 153.679688 276.738281 154.230469 275.636719 154.746094 C 274.558594 155.257812 273.378906 155.667969 272.097656 155.976562 C 270.839844 156.3125 269.554688 156.480469 268.25 156.480469 Z M 296.304688 156.480469 C 293.917969 156.480469 291.90625 156.054688 290.265625 155.207031 C 288.621094 154.359375 287.378906 153.179688 286.53125 151.664062 C 285.710938 150.121094 285.300781 148.351562 285.300781 146.347656 C 285.300781 144.265625 285.671875 142.378906 286.417969 140.683594 C 287.1875 138.960938 288.25 137.484375 289.609375 136.253906 C 290.96875 135.019531 292.546875 134.070312 294.34375 133.402344 C 296.164062 132.734375 298.128906 132.398438 300.230469 132.398438 C 302.71875 132.398438 304.554688 132.953125 305.734375 134.058594 C 306.914062 135.160156 307.503906 136.546875 307.503906 138.21875 C 307.503906 139.65625 307.027344 141.015625 306.078125 142.300781 C 305.15625 143.558594 303.65625 144.585938 301.578125 145.382812 C 299.5 146.152344 296.730469 146.550781 293.265625 146.578125 C 293.34375 148.222656 293.714844 149.519531 294.382812 150.46875 C 295.074219 151.394531 295.933594 151.855469 296.960938 151.855469 C 297.472656 151.855469 298.011719 151.742188 298.574219 151.507812 C 299.140625 151.253906 299.613281 150.816406 300 150.199219 C 300.382812 149.558594 300.578125 148.683594 300.578125 147.578125 C 302.320312 147.578125 303.695312 147.773438 304.695312 148.15625 C 305.695312 148.542969 306.195312 149.234375 306.195312 150.238281 C 306.195312 151.164062 305.796875 152.113281 305.003906 153.089844 C 304.207031 154.039062 303.066406 154.847656 301.578125 155.515625 C 300.117188 156.15625 298.359375 156.480469 296.304688 156.480469 Z M 293.613281 143.496094 C 295.484375 143.339844 296.984375 142.996094 298.113281 142.457031 C 299.242188 141.917969 300.0625 141.300781 300.578125 140.605469 C 301.089844 139.914062 301.347656 139.269531 301.347656 138.679688 C 301.347656 138.167969 301.191406 137.742188 300.886719 137.410156 C 300.578125 137.074219 300.140625 136.90625 299.578125 136.90625 C 298.652344 136.90625 297.792969 137.230469 297 137.871094 C 296.203125 138.511719 295.511719 139.347656 294.921875 140.375 C 294.355469 141.375 293.917969 142.417969 293.613281 143.496094 Z M 318.09375 129.894531 C 316.914062 129.894531 315.941406 129.640625 315.171875 129.125 C 314.402344 128.613281 314.015625 127.917969 314.015625 127.046875 C 314.015625 126.199219 314.296875 125.503906 314.863281 124.964844 C 315.425781 124.398438 316.105469 123.976562 316.902344 123.695312 C 317.722656 123.410156 318.492188 123.269531 319.210938 123.269531 C 320.390625 123.269531 321.367188 123.527344 322.136719 124.039062 C 322.90625 124.527344 323.289062 125.222656 323.289062 126.121094 C 323.289062 126.867188 323.046875 127.535156 322.558594 128.125 C 322.070312 128.6875 321.429688 129.125 320.632812 129.433594 C 319.863281 129.742188 319.019531 129.894531 318.09375 129.894531 Z M 310.820312 163.605469 C 309.230469 163.605469 308.078125 163.234375 307.359375 162.488281 C 306.613281 161.746094 306.242188 160.871094 306.242188 159.871094 C 306.242188 158.6875 306.640625 157.761719 307.4375 157.09375 C 308.207031 156.425781 309.230469 156.09375 310.515625 156.09375 C 311.257812 156.09375 311.886719 156.234375 312.398438 156.515625 C 312.9375 156.800781 313.414062 157.082031 313.824219 157.363281 L 314.207031 156.824219 C 313.488281 156.082031 312.9375 155.4375 312.554688 154.898438 C 312.167969 154.359375 311.898438 153.832031 311.746094 153.320312 C 311.617188 152.78125 311.554688 152.164062 311.554688 151.46875 C 311.554688 151.1875 311.617188 150.597656 311.746094 149.699219 C 311.898438 148.773438 312.078125 147.667969 312.285156 146.386719 C 312.515625 145.101562 312.746094 143.777344 312.976562 142.417969 C 313.234375 141.03125 313.476562 139.734375 313.707031 138.527344 L 311.554688 135.289062 C 312.914062 134.46875 314.207031 133.789062 315.441406 133.246094 C 316.671875 132.683594 317.902344 132.398438 319.132812 132.398438 C 320.210938 132.398438 320.957031 132.632812 321.367188 133.09375 C 321.800781 133.554688 322.019531 134.273438 322.019531 135.25 C 322.019531 135.714844 321.957031 136.445312 321.828125 137.445312 C 321.699219 138.449219 321.519531 139.628906 321.289062 140.992188 C 321.082031 142.328125 320.839844 143.753906 320.558594 145.269531 C 320.273438 146.785156 319.992188 148.296875 319.710938 149.8125 C 319.429688 151.328125 319.148438 152.753906 318.863281 154.089844 C 318.554688 155.683594 318.054688 157.199219 317.363281 158.636719 C 316.695312 160.101562 315.824219 161.292969 314.746094 162.21875 C 313.667969 163.144531 312.359375 163.605469 310.820312 163.605469 Z M 336.664062 156.480469 C 334.28125 156.480469 332.265625 156.054688 330.625 155.207031 C 328.980469 154.359375 327.738281 153.179688 326.890625 151.664062 C 326.070312 150.121094 325.660156 148.351562 325.660156 146.347656 C 325.660156 144.265625 326.03125 142.378906 326.777344 140.683594 C 327.546875 138.960938 328.609375 137.484375 329.96875 136.253906 C 331.328125 135.019531 332.90625 134.070312 334.703125 133.402344 C 336.523438 132.734375 338.488281 132.398438 340.589844 132.398438 C 343.078125 132.398438 344.914062 132.953125 346.09375 134.058594 C 347.273438 135.160156 347.863281 136.546875 347.863281 138.21875 C 347.863281 139.65625 347.390625 141.015625 346.441406 142.300781 C 345.515625 143.558594 344.015625 144.585938 341.9375 145.382812 C 339.859375 146.152344 337.089844 146.550781 333.625 146.578125 C 333.703125 148.222656 334.074219 149.519531 334.742188 150.46875 C 335.433594 151.394531 336.292969 151.855469 337.320312 151.855469 C 337.832031 151.855469 338.371094 151.742188 338.9375 151.507812 C 339.5 151.253906 339.976562 150.816406 340.359375 150.199219 C 340.746094 149.558594 340.9375 148.683594 340.9375 147.578125 C 342.679688 147.578125 344.054688 147.773438 345.054688 148.15625 C 346.054688 148.542969 346.554688 149.234375 346.554688 150.238281 C 346.554688 151.164062 346.15625 152.113281 345.363281 153.089844 C 344.566406 154.039062 343.425781 154.847656 341.9375 155.515625 C 340.476562 156.15625 338.71875 156.480469 336.664062 156.480469 Z M 333.972656 143.496094 C 335.84375 143.339844 337.34375 142.996094 338.472656 142.457031 C 339.601562 141.917969 340.421875 141.300781 340.9375 140.605469 C 341.449219 139.914062 341.707031 139.269531 341.707031 138.679688 C 341.707031 138.167969 341.550781 137.742188 341.246094 137.410156 C 340.9375 137.074219 340.5 136.90625 339.9375 136.90625 C 339.011719 136.90625 338.152344 137.230469 337.359375 137.871094 C 336.5625 138.511719 335.871094 139.347656 335.28125 140.375 C 334.714844 141.375 334.28125 142.417969 333.972656 143.496094 Z M 355.835938 156.480469 C 354.222656 156.480469 353.066406 156.066406 352.375 155.246094 C 351.683594 154.425781 351.335938 153.242188 351.335938 151.703125 C 351.335938 151.164062 351.414062 150.339844 351.566406 149.234375 C 351.71875 148.105469 351.914062 146.859375 352.144531 145.5 C 352.398438 144.113281 352.667969 142.726562 352.953125 141.339844 C 353.234375 139.953125 353.503906 138.71875 353.761719 137.640625 L 351.757812 134.558594 C 352.8125 133.96875 353.9375 133.464844 355.144531 133.054688 C 356.375 132.617188 357.621094 132.398438 358.878906 132.398438 C 359.957031 132.398438 360.75 132.671875 361.261719 133.210938 C 361.777344 133.722656 362.03125 134.429688 362.03125 135.328125 C 362.03125 135.996094 361.941406 136.691406 361.765625 137.410156 C 361.585938 138.128906 361.378906 138.746094 361.148438 139.257812 L 361.53125 139.449219 C 363.046875 136.855469 364.699219 135.03125 366.496094 133.980469 C 368.292969 132.925781 370.125 132.398438 372 132.398438 C 373.566406 132.398438 374.730469 132.785156 375.5 133.554688 C 376.269531 134.300781 376.65625 135.46875 376.65625 137.0625 C 376.65625 138.449219 376.464844 139.925781 376.078125 141.492188 C 375.71875 143.035156 375.347656 144.625 374.960938 146.269531 C 374.578125 147.886719 374.386719 149.492188 374.386719 151.085938 C 374.386719 152.679688 374.65625 153.847656 375.195312 154.589844 C 373.832031 155.851562 372.421875 156.480469 370.960938 156.480469 C 369.34375 156.480469 368.191406 156.066406 367.496094 155.246094 C 366.804688 154.425781 366.457031 153.242188 366.457031 151.703125 C 366.457031 150.855469 366.574219 149.917969 366.804688 148.890625 C 367.035156 147.835938 367.304688 146.769531 367.613281 145.691406 C 367.921875 144.613281 368.191406 143.597656 368.421875 142.648438 C 368.652344 141.699219 368.765625 140.875 368.765625 140.183594 C 368.765625 139.644531 368.664062 139.21875 368.460938 138.910156 C 368.28125 138.601562 367.945312 138.449219 367.457031 138.449219 C 366.765625 138.449219 365.957031 138.757812 365.035156 139.375 C 364.109375 139.988281 363.199219 140.863281 362.300781 141.992188 C 361.429688 143.097656 360.699219 144.421875 360.109375 145.960938 C 359.542969 147.503906 359.261719 149.210938 359.261719 151.085938 C 359.261719 152.679688 359.53125 153.847656 360.070312 154.589844 C 358.710938 155.851562 357.300781 156.480469 355.835938 156.480469 Z M 355.835938 156.480469 "/>
<path style=" stroke:none;fill-rule:nonzero;fill:rgb(100%,76.862746%,32.156864%);fill-opacity:1;" d="M 199.84375 42.1875 L 77.601562 42.1875 C 73.070312 42.1875 69.394531 45.867188 69.394531 50.40625 L 69.394531 168.613281 C 69.394531 173.152344 73.070312 176.832031 77.601562 176.832031 L 199.84375 176.832031 C 204.375 176.832031 208.050781 173.152344 208.050781 168.613281 L 208.050781 50.40625 C 208.050781 45.867188 204.375 42.1875 199.84375 42.1875 Z M 199.84375 42.1875 "/>
<path style=" stroke:none;fill-rule:nonzero;fill:rgb(24.313726%,24.313726%,24.313726%);fill-opacity:1;" d="M 191.039062 133.585938 C 181.902344 155.863281 172.265625 167.878906 169.015625 168.960938 C 165.757812 169.90625 179.777344 151.8125 182.152344 136.554688 C 184.28125 123.59375 184.40625 111.035156 179.652344 111.035156 C 178.773438 111.035156 177.898438 111.441406 176.773438 112.25 C 173.519531 118.597656 168.386719 125.347656 160.878906 131.695312 C 157.875 134.257812 155.121094 136.691406 152.621094 139.121094 C 135.101562 156.132812 130.84375 168.960938 130.84375 168.960938 C 130.84375 168.960938 129.84375 166.125 136.726562 145.871094 C 136.726562 145.871094 130.59375 157.078125 110.070312 168.960938 C 110.070312 168.960938 134.472656 143.980469 141.605469 124.671875 C 145.238281 114.816406 147.863281 107.390625 150.367188 100.371094 C 153.246094 87.542969 133.847656 74.308594 125.589844 70.257812 C 114.453125 64.859375 77.160156 60.539062 74.90625 57.296875 C 72.652344 54.058594 76.535156 54.328125 76.535156 54.328125 C 76.535156 54.328125 132.847656 54.328125 143.484375 54.460938 C 154.246094 54.597656 150.242188 63.238281 153.371094 70.527344 C 156.375 77.550781 159.503906 74.851562 159.628906 74.714844 C 161.003906 70.125 161.503906 66.75 162.132812 64.046875 C 163.007812 58.511719 167.386719 54.328125 172.640625 54.328125 C 174.894531 54.328125 177.023438 55.136719 178.773438 56.351562 C 179.652344 55.8125 182.402344 54.328125 185.65625 54.328125 L 182.527344 61.347656 C 182.902344 62.429688 183.28125 63.644531 183.28125 64.859375 C 183.28125 65.261719 183.28125 65.535156 183.28125 65.9375 C 183.28125 67.019531 183.15625 67.964844 182.902344 68.910156 C 182.652344 69.855469 182.402344 70.664062 182.027344 71.472656 C 181.652344 72.691406 181.402344 74.445312 181.402344 76.199219 C 181.402344 77.011719 181.402344 77.957031 181.652344 78.902344 C 181.652344 78.902344 185.40625 83.761719 188.910156 78.902344 C 192.414062 74.039062 196.167969 70.125 197.921875 76.066406 C 199.671875 82.277344 200.175781 111.304688 191.039062 133.585938 Z M 191.039062 133.585938 "/>
<path style=" stroke:none;fill-rule:nonzero;fill:rgb(100%,100%,100%);fill-opacity:1;" d="M 183.40625 65.9375 C 183.40625 67.019531 183.28125 67.964844 183.03125 68.910156 C 182.78125 69.855469 182.53125 70.664062 182.152344 71.476562 C 181.777344 72.691406 181.527344 74.445312 181.527344 76.199219 C 181.527344 77.011719 181.527344 77.957031 181.777344 78.902344 C 180.277344 83.625 179.902344 88.757812 178.648438 104.148438 C 178.398438 106.984375 177.773438 109.683594 176.898438 112.25 C 173.519531 118.597656 168.386719 125.347656 160.878906 131.695312 C 157.875 134.261719 155.121094 136.691406 152.621094 139.121094 C 149.867188 140.472656 146.863281 140.199219 146.488281 133.855469 C 145.613281 119.542969 159.503906 105.5 164.007812 100.371094 C 168.636719 95.238281 169.765625 83.492188 167.886719 76.605469 C 166.136719 69.71875 170.515625 67.289062 171.765625 65.9375 C 173.144531 64.589844 177.773438 65.804688 181.277344 64.859375 C 182.027344 64.722656 182.65625 64.722656 183.15625 64.859375 C 183.40625 65.265625 183.40625 65.667969 183.40625 65.9375 Z M 183.40625 65.9375 "/>
</g>
</svg>
