<svg width="1946" height="1786" viewBox="0 0 1946 1786" fill="none" xmlns="http://www.w3.org/2000/svg">
<path d="M1821.73 1234.44C1679.28 1581.4 1529.04 1768.55 1478.31 1785.38C1427.57 1800.09 1646.11 1518.32 1683.19 1280.7C1716.36 1078.83 1718.31 883.268 1644.16 883.268C1630.5 883.268 1616.84 889.576 1599.28 902.193C1548.55 1001.03 1468.55 1106.17 1351.47 1205C1304.64 1244.95 1261.72 1282.8 1222.69 1320.65C949.516 1585.61 883.174 1785.38 883.174 1785.38C883.174 1785.38 867.564 1741.22 974.883 1425.79C974.883 1425.79 879.271 1600.33 559.266 1785.38C559.266 1785.38 939.76 1396.35 1050.98 1095.65C1107.57 942.146 1148.54 826.492 1187.57 717.145C1232.45 517.378 930.004 311.302 801.221 248.218C627.56 164.105 46.0873 96.8153 10.9648 46.3477C-24.1577 -4.11979 36.3311 0.0858289 36.3311 0.0858289C36.3311 0.0858289 914.394 0.0858269 1080.25 2.18864C1248.06 4.29146 1185.62 138.872 1234.4 252.424C1281.23 361.77 1330.01 319.714 1331.96 317.611C1353.43 246.115 1361.23 193.545 1370.99 151.488C1384.65 65.2731 1452.94 0.0858289 1534.89 0.0858289C1570.01 0.0858289 1603.19 12.7027 1630.5 31.628C1644.16 23.2168 1687.09 0.0858289 1737.82 0.0858289L1689.04 109.432C1694.89 126.255 1700.75 145.18 1700.75 164.105C1700.75 170.414 1700.75 174.619 1700.75 180.928C1700.75 197.75 1698.8 212.47 1694.89 227.19C1690.99 241.909 1687.09 254.526 1681.24 267.143C1675.38 286.069 1671.48 313.405 1671.48 340.742C1671.48 353.359 1671.48 368.078 1675.38 382.798C1675.38 382.798 1733.92 458.499 1788.55 382.798C1843.19 307.097 1901.73 246.115 1929.04 338.639C1956.36 435.368 1964.17 887.473 1821.73 1234.44Z" fill="#3E3E3E"/>
<path d="M1702.71 180.932C1702.71 197.755 1700.75 212.475 1696.85 227.194C1692.95 241.914 1689.05 254.531 1683.19 267.148C1677.34 286.073 1673.44 313.41 1673.44 340.746C1673.44 353.363 1673.44 368.083 1677.34 382.803C1653.92 456.401 1648.07 536.308 1628.56 776.029C1624.66 820.188 1614.9 862.244 1601.24 902.198C1548.56 1001.03 1468.56 1106.17 1351.48 1205C1304.65 1244.96 1261.72 1282.81 1222.7 1320.66C1179.77 1341.69 1132.94 1337.48 1127.09 1238.65C1113.43 1015.75 1330.02 797.057 1400.26 717.15C1472.46 637.243 1490.02 454.298 1460.75 347.055C1433.43 239.811 1501.73 201.96 1521.24 180.932C1542.7 159.904 1614.9 178.83 1669.53 164.11C1681.24 162.007 1691 162.007 1698.8 164.11C1702.71 170.418 1702.71 176.727 1702.71 180.932Z" fill="white"/>
</svg>
