<svg width="7266" height="6105" viewBox="0 0 7266 6105" fill="none" xmlns="http://www.w3.org/2000/svg">
<rect width="7266" height="6105" fill="white"/>
<path d="M6309.34 2905H1172C1101.31 2905 1044 2962.31 1044 3033V4882.23C1044 4952.92 1101.31 5010.23 1172 5010.23H6309.34C6380.04 5010.23 6437.34 4952.92 6437.34 4882.23V3033C6437.34 2962.31 6380.04 2905 6309.34 2905Z" fill="#FFC452"/>
<path d="M2154.18 4596.13H1721L1879.05 3305H2029.3L1890.76 4442.62H2031.25L2070.27 4125.1H2214.67L2154.18 4596.13Z" fill="#3E3E3E"/>
<path d="M2575.66 4265.99H2427.37L2361.02 4596.13H2210.78L2474.2 3305H2768.84L2716.15 4596.13H2562L2575.66 4265.99ZM2456.64 4116.69H2583.47L2610.78 3458.51H2589.32L2456.64 4116.69Z" fill="#3E3E3E"/>
<path d="M3270.32 4379.54C3250.81 4533.04 3168.86 4610.85 3022.51 4610.85H3006.9C2866.41 4610.85 2802.02 4533.04 2821.53 4379.54L2841.05 4217.62H2991.29L2969.83 4400.57C2965.93 4438.42 2979.58 4455.24 3010.8 4455.24H3065.44C3096.66 4455.24 3114.22 4434.21 3120.07 4394.26L3153.25 4125.1L2882.02 3944.26L2930.8 3542.62C2950.32 3384.91 3036.17 3305 3186.42 3305H3385.44L3324.96 3807.57H3174.71L3217.64 3458.51H3143.49C3108.37 3458.51 3088.85 3479.53 3083 3519.49L3042.02 3858.04L3313.25 4036.78L3270.32 4379.54Z" fill="#3E3E3E"/>
<path d="M4005.94 3807.57H3861.54L3904.47 3458.51H3824.47L3683.98 4596.13H3533.73L3672.27 3458.51H3590.32L3547.39 3807.57H3403L3465.44 3305H4066.43L4005.94 3807.57Z" fill="#3E3E3E"/>
<path d="M4160.08 3305H4310.33L4150.33 4596.13H4000.08L4160.08 3305Z" fill="#3E3E3E"/>
<path d="M4519.1 4442.62H4542.51L4772.76 3305H4923.01L4655.69 4596.13H4363L4413.73 3305H4567.88L4519.1 4442.62Z" fill="#3E3E3E"/>
<path d="M5190.35 4169.26H5069.37L5016.69 4596.13H4866.44L5024.49 3305H5174.74L5110.35 3824.4L5278.16 3725.56L5328.89 3307.1H5479.13L5418.65 3797.06L5090.84 3988.41L5086.93 4019.96H5358.16L5313.28 4383.74C5309.38 4421.59 5326.94 4448.93 5362.06 4448.93H5387.43L5367.91 4608.74C5221.57 4608.74 5143.52 4539.35 5164.98 4362.72L5190.35 4169.26Z" fill="#3E3E3E"/>
<path d="M5785.44 4265.99H5635.19L5570.8 4596.13H5420.55L5683.97 3305H5978.61L5925.93 4596.13H5771.78L5785.44 4265.99ZM5666.41 4116.69H5793.24L5820.56 3458.51H5799.1L5666.41 4116.69Z" fill="#3E3E3E"/>
<path d="M6244 1739H3655C3548.41 1739 3462 1825.41 3462 1932V2561C3462 2667.59 3548.41 2754 3655 2754H6244C6350.59 2754 6437 2667.59 6437 2561V1932C6437 1825.41 6350.59 1739 6244 1739Z" fill="#FFC452"/>
<path d="M4182.6 2437C4142.2 2437 4113.6 2431.4 4096.8 2420.2C4080 2408.6 4071.6 2389.8 4071.6 2363.8C4071.6 2339 4071.6 2318.2 4071.6 2301.4C4072 2284.2 4072.2 2268.2 4072.2 2253.4C4072.2 2230.6 4071.4 2207.6 4069.8 2184.4C4068.2 2161.2 4065 2139 4060.2 2117.8C4055.4 2096.6 4048.2 2077.4 4038.6 2060.2C4029 2043 4016.2 2029 4000.2 2018.2C4027.4 1997.4 4058.6 1987 4093.8 1987C4118.2 1987 4137.6 1994 4152 2008C4166.4 2022 4177.2 2040.8 4184.4 2064.4C4191.6 2087.6 4196.2 2113.4 4198.2 2141.8C4200.6 2169.8 4201.8 2198 4201.8 2226.4C4201.8 2244.8 4201.4 2262.6 4200.6 2279.8C4200.2 2297 4200 2312.8 4200 2327.2H4215.6C4224.8 2307.2 4234.6 2284.6 4245 2259.4C4255.4 2234.2 4265.2 2208.6 4274.4 2182.6C4283.6 2156.6 4291 2132 4296.6 2108.8C4302.6 2085.6 4305.6 2066.2 4305.6 2050.6C4305.6 2043.8 4305 2037.8 4303.8 2032.6C4302.6 2027 4301 2022.2 4299 2018.2C4314.2 2007.8 4328.4 2000 4341.6 1994.8C4355.2 1989.6 4369 1987 4383 1987C4405 1987 4420.4 1993.4 4429.2 2006.2C4438.4 2018.6 4443 2034.8 4443 2054.8C4443 2069.6 4440.2 2087 4434.6 2107C4429 2127 4421.6 2148.2 4412.4 2170.6C4403.6 2193 4394.2 2215.4 4384.2 2237.8C4374.2 2259.8 4364.4 2280.6 4354.8 2300.2C4345.6 2319.8 4338 2336.8 4332 2351.2L4340.4 2384.2C4329.2 2393.4 4315 2402 4297.8 2410C4281 2418 4262.6 2424.4 4242.6 2429.2C4223 2434.4 4203 2437 4182.6 2437ZM4620.08 2437C4582.88 2437 4551.48 2430.4 4525.88 2417.2C4500.28 2404 4480.88 2385.6 4467.68 2362C4454.88 2338 4448.48 2310.4 4448.48 2279.2C4448.48 2246.8 4454.28 2217.4 4465.88 2191C4477.88 2164.2 4494.48 2141.2 4515.68 2122C4536.88 2102.8 4561.48 2088 4589.48 2077.6C4617.88 2067.2 4648.48 2062 4681.28 2062C4720.08 2062 4748.68 2070.6 4767.08 2087.8C4785.48 2105 4794.68 2126.6 4794.68 2152.6C4794.68 2175 4787.28 2196.2 4772.48 2216.2C4758.08 2235.8 4734.68 2251.8 4702.28 2264.2C4669.88 2276.2 4626.68 2282.4 4572.68 2282.8C4573.88 2308.4 4579.68 2328.6 4590.08 2343.4C4600.88 2357.8 4614.28 2365 4630.28 2365C4638.28 2365 4646.68 2363.2 4655.48 2359.6C4664.28 2355.6 4671.68 2348.8 4677.68 2339.2C4683.68 2329.2 4686.68 2315.6 4686.68 2298.4C4713.88 2298.4 4735.28 2301.4 4750.88 2307.4C4766.48 2313.4 4774.28 2324.2 4774.28 2339.8C4774.28 2354.2 4768.08 2369 4755.68 2384.2C4743.28 2399 4725.48 2411.6 4702.28 2422C4679.48 2432 4652.08 2437 4620.08 2437ZM4578.08 2234.8C4607.28 2232.4 4630.68 2227 4648.28 2218.6C4665.88 2210.2 4678.68 2200.6 4686.68 2189.8C4694.68 2179 4698.68 2169 4698.68 2159.8C4698.68 2151.8 4696.28 2145.2 4691.48 2140C4686.68 2134.8 4679.88 2132.2 4671.08 2132.2C4656.68 2132.2 4643.28 2137.2 4630.88 2147.2C4618.48 2157.2 4607.68 2170.2 4598.48 2186.2C4589.68 2201.8 4582.88 2218 4578.08 2234.8ZM4959.82 2023C4941.42 2023 4926.22 2019 4914.22 2011C4902.22 2003 4896.22 1992.2 4896.22 1978.6C4896.22 1965.4 4900.62 1954.6 4909.42 1946.2C4918.22 1937.4 4928.82 1930.8 4941.22 1926.4C4954.02 1922 4966.02 1919.8 4977.22 1919.8C4995.62 1919.8 5010.82 1923.8 5022.82 1931.8C5034.82 1939.4 5040.82 1950.2 5040.82 1964.2C5040.82 1975.8 5037.02 1986.2 5029.42 1995.4C5021.82 2004.2 5011.82 2011 4999.42 2015.8C4987.42 2020.6 4974.22 2023 4959.82 2023ZM4846.42 2548C4821.62 2548 4803.62 2542.2 4792.42 2530.6C4780.82 2519 4775.02 2505.4 4775.02 2489.8C4775.02 2471.4 4781.22 2457 4793.62 2446.6C4805.62 2436.2 4821.62 2431 4841.62 2431C4853.22 2431 4863.02 2433.2 4871.02 2437.6C4879.42 2442 4886.82 2446.4 4893.22 2450.8L4899.22 2442.4C4888.02 2430.8 4879.42 2420.8 4873.42 2412.4C4867.42 2404 4863.22 2395.8 4860.82 2387.8C4858.82 2379.4 4857.82 2369.8 4857.82 2359C4857.82 2354.6 4858.82 2345.4 4860.82 2331.4C4863.22 2317 4866.02 2299.8 4869.22 2279.8C4872.82 2259.8 4876.42 2239.2 4880.02 2218C4884.02 2196.4 4887.82 2176.2 4891.42 2157.4L4857.82 2107C4879.02 2094.2 4899.22 2083.6 4918.42 2075.2C4937.62 2066.4 4956.82 2062 4976.02 2062C4992.82 2062 5004.42 2065.6 5010.82 2072.8C5017.62 2080 5021.02 2091.2 5021.02 2106.4C5021.02 2113.6 5020.02 2125 5018.02 2140.6C5016.02 2156.2 5013.22 2174.6 5009.62 2195.8C5006.42 2216.6 5002.62 2238.8 4998.22 2262.4C4993.82 2286 4989.42 2309.6 4985.02 2333.2C4980.62 2356.8 4976.22 2379 4971.82 2399.8C4967.02 2424.6 4959.22 2448.2 4948.42 2470.6C4938.02 2493.4 4924.42 2512 4907.62 2526.4C4890.82 2540.8 4870.42 2548 4846.42 2548ZM5249.38 2437C5212.18 2437 5180.78 2430.4 5155.18 2417.2C5129.58 2404 5110.18 2385.6 5096.98 2362C5084.18 2338 5077.78 2310.4 5077.78 2279.2C5077.78 2246.8 5083.58 2217.4 5095.18 2191C5107.18 2164.2 5123.78 2141.2 5144.98 2122C5166.18 2102.8 5190.78 2088 5218.78 2077.6C5247.18 2067.2 5277.78 2062 5310.58 2062C5349.38 2062 5377.98 2070.6 5396.38 2087.8C5414.78 2105 5423.98 2126.6 5423.98 2152.6C5423.98 2175 5416.58 2196.2 5401.78 2216.2C5387.38 2235.8 5363.98 2251.8 5331.58 2264.2C5299.18 2276.2 5255.98 2282.4 5201.98 2282.8C5203.18 2308.4 5208.98 2328.6 5219.38 2343.4C5230.18 2357.8 5243.58 2365 5259.58 2365C5267.58 2365 5275.98 2363.2 5284.78 2359.6C5293.58 2355.6 5300.98 2348.8 5306.98 2339.2C5312.98 2329.2 5315.98 2315.6 5315.98 2298.4C5343.18 2298.4 5364.58 2301.4 5380.18 2307.4C5395.78 2313.4 5403.58 2324.2 5403.58 2339.8C5403.58 2354.2 5397.38 2369 5384.98 2384.2C5372.58 2399 5354.78 2411.6 5331.58 2422C5308.78 2432 5281.38 2437 5249.38 2437ZM5207.38 2234.8C5236.58 2232.4 5259.98 2227 5277.58 2218.6C5295.18 2210.2 5307.98 2200.6 5315.98 2189.8C5323.98 2179 5327.98 2169 5327.98 2159.8C5327.98 2151.8 5325.58 2145.2 5320.78 2140C5315.98 2134.8 5309.18 2132.2 5300.38 2132.2C5285.98 2132.2 5272.58 2137.2 5260.18 2147.2C5247.78 2157.2 5236.98 2170.2 5227.78 2186.2C5218.98 2201.8 5212.18 2218 5207.38 2234.8ZM5548.32 2437C5523.12 2437 5505.12 2430.6 5494.32 2417.8C5483.52 2405 5478.12 2386.6 5478.12 2362.6C5478.12 2354.2 5479.32 2341.4 5481.72 2324.2C5484.12 2306.6 5487.12 2287.2 5490.72 2266C5494.72 2244.4 5498.92 2222.8 5503.32 2201.2C5507.72 2179.6 5511.92 2160.4 5515.92 2143.6L5484.72 2095.6C5501.12 2086.4 5518.72 2078.6 5537.52 2072.2C5556.72 2065.4 5576.12 2062 5595.72 2062C5612.52 2062 5624.92 2066.2 5632.92 2074.6C5640.92 2082.6 5644.92 2093.6 5644.92 2107.6C5644.92 2118 5643.52 2128.8 5640.72 2140C5637.92 2151.2 5634.72 2160.8 5631.12 2168.8L5637.12 2171.8C5660.72 2131.4 5686.52 2103 5714.52 2086.6C5742.52 2070.2 5771.12 2062 5800.32 2062C5824.72 2062 5842.92 2068 5854.92 2080C5866.92 2091.6 5872.92 2109.8 5872.92 2134.6C5872.92 2156.2 5869.92 2179.2 5863.92 2203.6C5858.32 2227.6 5852.52 2252.4 5846.52 2278C5840.52 2303.2 5837.52 2328.2 5837.52 2353C5837.52 2377.8 5841.72 2396 5850.12 2407.6C5828.92 2427.2 5806.92 2437 5784.12 2437C5758.92 2437 5740.92 2430.6 5730.12 2417.8C5719.32 2405 5713.92 2386.6 5713.92 2362.6C5713.92 2349.4 5715.72 2334.8 5719.32 2318.8C5722.92 2302.4 5727.12 2285.8 5731.92 2269C5736.72 2252.2 5740.92 2236.4 5744.52 2221.6C5748.12 2206.8 5749.92 2194 5749.92 2183.2C5749.92 2174.8 5748.32 2168.2 5745.12 2163.4C5742.32 2158.6 5737.12 2156.2 5729.52 2156.2C5718.72 2156.2 5706.12 2161 5691.72 2170.6C5677.32 2180.2 5663.12 2193.8 5649.12 2211.4C5635.52 2228.6 5624.12 2249.2 5614.92 2273.2C5606.12 2297.2 5601.72 2323.8 5601.72 2353C5601.72 2377.8 5605.92 2396 5614.32 2407.6C5593.12 2427.2 5571.12 2437 5548.32 2437Z" fill="#3E3E3E"/>
<path d="M3116 657H1210C1139.31 657 1082 714.308 1082 785V2626C1082 2696.69 1139.31 2754 1210 2754H3116C3186.69 2754 3244 2696.69 3244 2626V785C3244 714.308 3186.69 657 3116 657Z" fill="#FFC452"/>
<path d="M2978.73 2080.44C2836.28 2427.4 2686.04 2614.55 2635.31 2631.38C2584.57 2646.09 2803.11 2364.32 2840.19 2126.7C2873.36 1924.83 2875.31 1729.27 2801.16 1729.27C2787.5 1729.27 2773.84 1735.58 2756.28 1748.19C2705.55 1847.03 2625.55 1952.17 2508.47 2051C2461.64 2090.95 2418.72 2128.8 2379.69 2166.65C2106.52 2431.61 2040.17 2631.38 2040.17 2631.38C2040.17 2631.38 2024.56 2587.22 2131.88 2271.79C2131.88 2271.79 2036.27 2446.33 1716.27 2631.38C1716.27 2631.38 2096.76 2242.35 2207.98 1941.65C2264.57 1788.15 2305.54 1672.49 2344.57 1563.15C2389.45 1363.38 2087 1157.3 1958.22 1094.22C1784.56 1010.11 1203.09 942.815 1167.96 892.348C1132.84 841.88 1193.33 846.086 1193.33 846.086C1193.33 846.086 2071.39 846.086 2237.25 848.189C2405.06 850.291 2342.62 984.872 2391.4 1098.42C2438.23 1207.77 2487.01 1165.71 2488.96 1163.61C2510.43 1092.12 2518.23 1039.54 2527.99 997.488C2541.65 911.273 2609.94 846.086 2691.89 846.086C2727.01 846.086 2760.19 858.703 2787.5 877.628C2801.16 869.217 2844.09 846.086 2894.82 846.086L2846.04 955.432C2851.89 972.255 2857.75 991.18 2857.75 1010.11C2857.75 1016.41 2857.75 1020.62 2857.75 1026.93C2857.75 1043.75 2855.8 1058.47 2851.89 1073.19C2847.99 1087.91 2844.09 1100.53 2838.24 1113.14C2832.38 1132.07 2828.48 1159.41 2828.48 1186.74C2828.48 1199.36 2828.48 1214.08 2832.38 1228.8C2832.38 1228.8 2890.92 1304.5 2945.55 1228.8C3000.19 1153.1 3058.73 1092.12 3086.04 1184.64C3113.36 1281.37 3121.17 1733.47 2978.73 2080.44Z" fill="#3E3E3E"/>
<path d="M2859.71 1026.93C2859.71 1043.75 2857.75 1058.47 2853.85 1073.19C2849.95 1087.91 2846.05 1100.53 2840.19 1113.15C2834.34 1132.07 2830.44 1159.41 2830.44 1186.75C2830.44 1199.36 2830.44 1214.08 2834.34 1228.8C2810.92 1302.4 2805.07 1382.31 2785.56 1622.03C2781.66 1666.19 2771.9 1708.24 2758.24 1748.2C2705.56 1847.03 2625.56 1952.17 2508.48 2051C2461.65 2090.96 2418.72 2128.81 2379.7 2166.66C2336.77 2187.69 2289.94 2183.48 2284.09 2084.65C2270.43 1861.75 2487.02 1643.06 2557.26 1563.15C2629.46 1483.24 2647.02 1300.3 2617.75 1193.05C2590.43 1085.81 2658.73 1047.96 2678.24 1026.93C2699.7 1005.9 2771.9 1024.83 2826.53 1010.11C2838.24 1008.01 2848 1008.01 2855.8 1010.11C2859.71 1016.42 2859.71 1022.73 2859.71 1026.93Z" fill="white"/>
</svg>
